{
    "asset" : {
        "generator" : "Khronos glTF Blender I/O v1.8.19",
        "version" : "2.0"
    },
    "extensionsUsed" : [
        "KHR_lights_punctual"
    ],
    "extensionsRequired" : [
        "KHR_lights_punctual"
    ],
    "extensions" : {
        "KHR_lights_punctual" : {
            "lights" : [
                {
                    "color" : [
                        1,
                        1,
                        1
                    ],
                    "intensity" : 1,
                    "type" : "directional",
                    "name" : "\ud0dc\uc591"
                }
            ]
        }
    },
    "scene" : 0,
    "scenes" : [
        {
            "name" : "Scene",
            "nodes" : [
                0,
                2
            ]
        }
    ],
    "nodes" : [
        {
            "mesh" : 0,
            "name" : "node_damagedHelmet_-6514",
            "rotation" : [
                0.7071068286895752,
                0,
                0,
                0.7071068286895752
            ]
        },
        {
            "extensions" : {
                "KHR_lights_punctual" : {
                    "light" : 0
                }
            },
            "name" : "\ud0dc\uc591_Orientation",
            "rotation" : [
                -0.7071067690849304,
                0,
                0,
                0.7071067690849304
            ]
        },
        {
            "children" : [
                1
            ],
            "name" : "\ud0dc\uc591",
            "rotation" : [
                -0.10838266462087631,
                0.03905174508690834,
                0.00045345135731622577,
                0.9933418035507202
            ],
            "translation" : [
                0,
                4.389998435974121,
                -1.3799999952316284
            ]
        }
    ],
    "materials" : [
        {
            "emissiveFactor" : [
                1,
                1,
                1
            ],
            "emissiveTexture" : {
                "index" : 0
            },
            "name" : "Material_MR",
            "normalTexture" : {
                "index" : 1
            },
            "occlusionTexture" : {
                "index" : 2
            },
            "pbrMetallicRoughness" : {
                "baseColorTexture" : {
                    "index" : 3
                },
                "metallicRoughnessTexture" : {
                    "index" : 2
                }
            }
        }
    ],
    "meshes" : [
        {
            "name" : "mesh_helmet_LP_13930damagedHelmet",
            "primitives" : [
                {
                    "attributes" : {
                        "POSITION" : 0,
                        "NORMAL" : 1,
                        "TEXCOORD_0" : 2
                    },
                    "indices" : 3,
                    "material" : 0
                }
            ]
        }
    ],
    "textures" : [
        {
            "sampler" : 0,
            "source" : 0
        },
        {
            "sampler" : 0,
            "source" : 1
        },
        {
            "sampler" : 0,
            "source" : 2
        },
        {
            "sampler" : 0,
            "source" : 3
        }
    ],
    "images" : [
        {
            "mimeType" : "image/jpeg",
            "name" : "Default_emissive",
            "uri" : "Default_emissive.jpg"
        },
        {
            "mimeType" : "image/jpeg",
            "name" : "Default_normal",
            "uri" : "Default_normal.jpg"
        },
        {
            "mimeType" : "image/png",
            "name" : "Default_AO-Default_metalRoughness",
            "uri" : "Default_AO-Default_metalRoughness.png"
        },
        {
            "mimeType" : "image/jpeg",
            "name" : "Default_albedo",
            "uri" : "Default_albedo.jpg"
        }
    ],
    "accessors" : [
        {
            "bufferView" : 0,
            "componentType" : 5126,
            "count" : 14874,
            "max" : [
                0.9424954056739807,
                0.8128451108932495,
                0.900973916053772
            ],
            "min" : [
                -0.9474585652351379,
                -1.18715500831604,
                -0.9009949564933777
            ],
            "type" : "VEC3"
        },
        {
            "bufferView" : 1,
            "componentType" : 5126,
            "count" : 14874,
            "type" : "VEC3"
        },
        {
            "bufferView" : 2,
            "componentType" : 5126,
            "count" : 14874,
            "type" : "VEC2"
        },
        {
            "bufferView" : 3,
            "componentType" : 5123,
            "count" : 46356,
            "type" : "SCALAR"
        }
    ],
    "bufferViews" : [
        {
            "buffer" : 0,
            "byteLength" : 178488,
            "byteOffset" : 0
        },
        {
            "buffer" : 0,
            "byteLength" : 178488,
            "byteOffset" : 178488
        },
        {
            "buffer" : 0,
            "byteLength" : 118992,
            "byteOffset" : 356976
        },
        {
            "buffer" : 0,
            "byteLength" : 92712,
            "byteOffset" : 475968
        }
    ],
    "samplers" : [
        {
            "magFilter" : 9729,
            "minFilter" : 9987
        }
    ],
    "buffers" : [
        {
            "byteLength" : 568680,
            "uri" : "untitled.bin"
        }
    ]
}
